<svg width="26" height="19" viewBox="0 0 26 19" fill="none" xmlns="http://www.w3.org/2000/svg">
<g filter="url(#filter0_d_7_66)">
<path d="M21.5458 0.928571C21.5458 0.928571 21.4208 0.571428 20.644 0.669642L18.0725 0.6875C17.8761 0.660714 17.7333 0.741071 17.7333 0.741071C17.7333 0.741071 17.5815 0.821428 17.51 1.01786C17.0904 2.09821 16.5547 3.02679 16.5547 3.02679C15.4118 4.97321 14.9475 5.08036 14.76 4.95536C14.3225 4.67857 14.4386 3.83036 14.4386 3.22321C14.4386 1.33036 14.7243 0.544642 13.8761 0.339285C13.5993 0.276785 13.394 0.232142 12.6708 0.223214C11.7511 0.214285 10.9743 0.223214 10.5368 0.4375C10.2422 0.580357 10.019 0.901785 10.1529 0.919642C10.3225 0.946428 10.7065 1.02678 10.9118 1.30357C10.9118 1.30357 11.135 1.66964 11.1708 2.47321C11.269 4.69643 10.8136 4.97321 10.8136 4.97321C10.4654 5.16071 9.85826 4.84821 8.9654 3.00893C8.9654 3.00893 8.44755 2.09821 8.04576 1.09821C7.97433 0.910714 7.83147 0.8125 7.83147 0.8125C7.83147 0.8125 7.67076 0.6875 7.43862 0.651785L4.99219 0.669642C4.61719 0.669642 4.48326 0.839285 4.48326 0.839285C4.48326 0.839285 4.34933 0.982142 4.47433 1.27678C6.38504 5.76786 8.56362 8.01786 8.56362 8.01786C8.56362 8.01786 10.5547 10.0982 12.8136 9.95536H13.8404C14.1529 9.92857 14.3136 9.75893 14.3136 9.75893C14.3136 9.75893 14.4565 9.59821 14.4475 9.30357C14.4297 7.92857 15.0725 7.72321 15.0725 7.72321C15.6975 7.52679 16.5011 9.05357 17.3583 9.64286C17.3583 9.64286 18.01 10.0893 18.5011 9.99107L20.7868 9.95536C21.9922 9.94643 21.4208 8.94643 21.4208 8.94643C21.3761 8.86607 21.0904 8.25 19.7154 6.97321C18.2868 5.64286 18.4743 5.85714 20.2065 3.55357C21.26 2.15179 21.6797 1.29464 21.5458 0.928571Z" fill="#D7B399"/>
</g>
<defs>
<filter id="filter0_d_7_66" x="0.349335" y="0.214233" width="25.6429" height="17.884" filterUnits="userSpaceOnUse" color-interpolation-filters="sRGB">
<feFlood flood-opacity="0" result="BackgroundImageFix"/>
<feColorMatrix in="SourceAlpha" type="matrix" values="0 0 0 0 0 0 0 0 0 0 0 0 0 0 0 0 0 0 127 0" result="hardAlpha"/>
<feOffset dy="4"/>
<feGaussianBlur stdDeviation="2"/>
<feComposite in2="hardAlpha" operator="out"/>
<feColorMatrix type="matrix" values="0 0 0 0 0 0 0 0 0 0 0 0 0 0 0 0 0 0 0.25 0"/>
<feBlend mode="normal" in2="BackgroundImageFix" result="effect1_dropShadow_7_66"/>
<feBlend mode="normal" in="SourceGraphic" in2="effect1_dropShadow_7_66" result="shape"/>
</filter>
</defs>
</svg>
